<svg width="12" height="11" viewBox="0 0 12 11" fill="none" xmlns="http://www.w3.org/2000/svg">
<g clip-path="url(#clip0_2_60)">
<path fill-rule="evenodd" clip-rule="evenodd" d="M0 5.28097C0 5.09156 0.079009 4.90991 0.219646 4.77598C0.360282 4.64205 0.551026 4.56681 0.749916 4.56681H9.43845L6.21831 1.50165C6.07749 1.36755 5.99838 1.18567 5.99838 0.996027C5.99838 0.806382 6.07749 0.624503 6.21831 0.490404C6.35912 0.356304 6.5501 0.280968 6.74925 0.280968C6.94839 0.280968 7.13937 0.356304 7.28019 0.490404L11.7797 4.77534C11.8495 4.84168 11.9049 4.92049 11.9427 5.00726C11.9805 5.09402 12 5.18703 12 5.28097C12 5.3749 11.9805 5.46792 11.9427 5.55468C11.9049 5.64144 11.8495 5.72025 11.7797 5.78659L7.28019 10.0715C7.13937 10.2056 6.94839 10.281 6.74925 10.281C6.5501 10.281 6.35912 10.2056 6.21831 10.0715C6.07749 9.93743 5.99838 9.75556 5.99838 9.56591C5.99838 9.37626 6.07749 9.19439 6.21831 9.06029L9.43845 5.99512H0.749916C0.551026 5.99512 0.360282 5.91988 0.219646 5.78595C0.079009 5.65202 0 5.47037 0 5.28097Z" fill="white"/>
</g>
<defs>
<clipPath id="clip0_2_60">
<rect width="12" height="10" fill="white" transform="translate(0 0.280968)"/>
</clipPath>
</defs>
</svg>
