<svg width="33" height="33" viewBox="0 0 33 33" fill="none" xmlns="http://www.w3.org/2000/svg">
<g clip-path="url(#clip0_2_124)">
<g clip-path="url(#clip1_2_124)">
<path d="M28.2058 8.58566C29.1981 8.26479 30.132 7.73457 30.9371 7.00273L29.6708 5.61C27.9031 7.21683 25.3064 7.52794 23.2093 6.38406C21.9657 5.70573 20.6233 5.22268 19.2387 4.94612C19.4921 4.49369 19.6372 3.97273 19.6372 3.41828C19.6372 1.68838 18.2299 0.281006 16.5 0.281006C14.7701 0.281006 13.3628 1.68838 13.3628 3.41828C13.3628 3.97273 13.5079 4.49369 13.7613 4.94612C12.3766 5.22255 11.0343 5.70573 9.79074 6.384C7.69355 7.52801 5.09683 7.2169 3.32915 5.61L2.06296 7.00279C2.93099 7.79182 3.94889 8.34601 5.02804 8.65655L0.5 16.0146V17.2222C0.5 20.509 3.174 23.183 6.46078 23.183H7.71568C10.7906 23.183 13.3619 20.8426 13.6765 17.8496V16.029L9.38725 8.59435C9.83321 8.4517 10.2703 8.2665 10.6922 8.03642C12.2243 7.20073 13.8818 6.71856 15.5589 6.58707V26.4702H14.0994C11.4143 26.4702 9.22983 28.6547 9.22983 31.3398V32.2809H23.7157V31.3398C23.7157 28.6547 21.5312 26.4702 18.8462 26.4702H17.4412V6.58713C19.1183 6.71863 20.7758 7.20086 22.308 8.03655C22.8031 8.30657 23.3191 8.51586 23.8461 8.66561L19.3235 16.0146V17.2222C19.3235 20.509 21.9975 23.183 25.2843 23.183H26.5392C29.6141 23.183 32.1855 20.8426 32.5 17.8496V16.029L28.2058 8.58566ZM2.54633 16.281L6.98676 9.06536H7.48591L11.6488 16.281H2.54633ZM21.3699 16.281L25.8103 9.06536H26.3095L30.4724 16.281H21.3699Z" fill="#23A6F0"/>
</g>
</g>
<defs>
<clipPath id="clip0_2_124">
<rect width="32" height="31.9999" fill="white" transform="translate(0.5 0.281006)"/>
</clipPath>
<clipPath id="clip1_2_124">
<rect width="32" height="31.9999" fill="white" transform="translate(0.5 0.281006)"/>
</clipPath>
</defs>
</svg>
