<svg width="17" height="17" viewBox="0 0 17 17" fill="none" xmlns="http://www.w3.org/2000/svg">
<g clip-path="url(#clip0_2_183)">
<path d="M1 10.1809C1.13261 10.1809 1.25979 10.2336 1.35355 10.3274C1.44732 10.4211 1.5 10.5483 1.5 10.6809V13.1809C1.5 13.4461 1.60536 13.7005 1.79289 13.888C1.98043 14.0756 2.23478 14.1809 2.5 14.1809H14.5C14.7652 14.1809 15.0196 14.0756 15.2071 13.888C15.3946 13.7005 15.5 13.4461 15.5 13.1809V10.6809C15.5 10.5483 15.5527 10.4211 15.6464 10.3274C15.7402 10.2336 15.8674 10.1809 16 10.1809C16.1326 10.1809 16.2598 10.2336 16.3536 10.3274C16.4473 10.4211 16.5 10.5483 16.5 10.6809V13.1809C16.5 13.7113 16.2893 14.22 15.9142 14.5951C15.5391 14.9702 15.0304 15.1809 14.5 15.1809H2.5C1.96957 15.1809 1.46086 14.9702 1.08579 14.5951C0.710714 14.22 0.5 13.7113 0.5 13.1809V10.6809C0.5 10.5483 0.552678 10.4211 0.646447 10.3274C0.740215 10.2336 0.867392 10.1809 1 10.1809V10.1809Z" fill="#737373"/>
<path d="M8.14663 12.135C8.19308 12.1816 8.24825 12.2185 8.309 12.2437C8.36974 12.2689 8.43486 12.2819 8.50063 12.2819C8.5664 12.2819 8.63152 12.2689 8.69227 12.2437C8.75301 12.2185 8.80819 12.1816 8.85463 12.135L11.8546 9.13501C11.9485 9.04112 12.0013 8.91378 12.0013 8.78101C12.0013 8.64823 11.9485 8.52089 11.8546 8.42701C11.7607 8.33312 11.6334 8.28037 11.5006 8.28037C11.3679 8.28037 11.2405 8.33312 11.1466 8.42701L9.00063 10.574V1.78101C9.00063 1.6484 8.94795 1.52122 8.85419 1.42745C8.76042 1.33368 8.63324 1.28101 8.50063 1.28101C8.36802 1.28101 8.24085 1.33368 8.14708 1.42745C8.05331 1.52122 8.00063 1.6484 8.00063 1.78101V10.574L5.85463 8.42701C5.76075 8.33312 5.63341 8.28037 5.50063 8.28037C5.36786 8.28037 5.24052 8.33312 5.14663 8.42701C5.05275 8.52089 5 8.64823 5 8.78101C5 8.91378 5.05275 9.04112 5.14663 9.13501L8.14663 12.135V12.135Z" fill="#737373"/>
</g>
<defs>
<clipPath id="clip0_2_183">
<rect width="16" height="16" fill="white" transform="translate(0.5 0.281006)"/>
</clipPath>
</defs>
</svg>
