<svg width="33" height="33" viewBox="0 0 33 33" fill="none" xmlns="http://www.w3.org/2000/svg">
<g clip-path="url(#clip0_2_97)">
<g clip-path="url(#clip1_2_97)">
<path d="M30.625 7.84351V5.96851H19.1513C18.8683 5.17076 18.2352 4.53769 17.4375 4.25476V0.281006H15.5625V4.25476C14.7648 4.53769 14.1317 5.17076 13.8488 5.96851H2.375V7.84351H4.71875L0.5 17.9685V18.156C0.5 20.7407 2.60281 22.8435 5.1875 22.8435H7.0625C9.64719 22.8435 11.75 20.7407 11.75 18.156V17.9685L7.53125 7.84351H13.8488C14.1317 8.64126 14.7648 9.27432 15.5625 9.55726V23.0004C13.7021 23.3796 12.2401 24.8645 11.8925 26.7361C9.71613 27.1402 8.0625 29.0518 8.0625 31.3435V32.281H24.9376V31.3435C24.9376 29.0518 23.2839 27.1402 21.1076 26.736C20.7599 24.8644 19.2979 23.3794 17.4375 23.0003V9.55726C18.2352 9.27432 18.8683 8.64126 19.1513 7.84351H25.4688L21.25 17.9685V18.156C21.25 20.7407 23.3528 22.8435 25.9375 22.8435H27.8125C30.3972 22.8435 32.5 20.7407 32.5 18.156V17.9685L28.2812 7.84351H30.625ZM6.125 9.34351L9.40625 17.2185H2.84375L6.125 9.34351ZM7.0625 20.9685H5.1875C3.96537 20.9685 2.92325 20.1846 2.53625 19.0929H9.71375C9.32675 20.1846 8.28463 20.9685 7.0625 20.9685V20.9685ZM26.875 9.34351L30.1562 17.2185H23.5938L26.875 9.34351ZM27.8125 20.9685H25.9375C24.7154 20.9685 23.6732 20.1846 23.2862 19.0929H30.4638C30.0768 20.1846 29.0346 20.9685 27.8125 20.9685V20.9685ZM22.9019 30.406H10.0981C10.4851 29.3147 11.5278 28.531 12.75 28.531H20.2501C21.4723 28.531 22.5149 29.3147 22.9019 30.406V30.406ZM19.1513 26.656H13.8488C14.2358 25.5648 15.2779 24.781 16.5001 24.781C17.7222 24.781 18.7643 25.5648 19.1513 26.656ZM16.5 7.84351C15.9831 7.84351 15.5625 7.42294 15.5625 6.90601C15.5625 6.38907 15.9831 5.96851 16.5 5.96851C17.0169 5.96851 17.4375 6.38907 17.4375 6.90601C17.4375 7.42294 17.0169 7.84351 16.5 7.84351Z" fill="#23A6F0"/>
</g>
</g>
<defs>
<clipPath id="clip0_2_97">
<rect width="32" height="32" fill="white" transform="translate(0.5 0.281006)"/>
</clipPath>
<clipPath id="clip1_2_97">
<rect width="32" height="32" fill="white" transform="translate(0.5 0.281006)"/>
</clipPath>
</defs>
</svg>
