<svg width="33" height="33" viewBox="0 0 33 33" fill="none" xmlns="http://www.w3.org/2000/svg">
<g clip-path="url(#clip0_2_82)">
<g clip-path="url(#clip1_2_82)">
<g clip-path="url(#clip2_2_82)">
<path d="M0.5 29.6144H19.1667V32.2811H0.5V29.6144Z" fill="#23A6F0"/>
<path d="M16.4993 26.9261C16.4993 26.5725 16.3589 26.2333 16.1088 25.9833C15.8588 25.7333 15.5196 25.5928 15.166 25.5928H4.49935C4.14573 25.5928 3.80659 25.7333 3.55654 25.9833C3.30649 26.2333 3.16602 26.5725 3.16602 26.9261V28.2811H16.4993V26.9261Z" fill="#23A6F0"/>
<path d="M18.642 16.0251C18.0208 16.6872 17.4998 17.4367 17.0957 18.2498L28.0704 29.2245C28.3204 29.4744 28.6595 29.6148 29.013 29.6148C29.3666 29.6148 29.7057 29.4744 29.9557 29.2245L31.8414 27.3388C31.9652 27.215 32.0634 27.068 32.1304 26.9062C32.1974 26.7444 32.2319 26.5711 32.2319 26.3959C32.2319 26.2208 32.1974 26.0475 32.1304 25.8857C32.0634 25.7239 31.9652 25.5769 31.8414 25.4531L20.8667 14.4814C20.0522 14.882 19.3023 15.4023 18.642 16.0251V16.0251Z" fill="#23A6F0"/>
<path d="M12.0424 9.42544C11.0341 10.3612 9.86689 11.1095 8.5957 11.6351L15.487 18.5264C16.0174 17.2574 16.7664 16.0914 17.7 15.0814C18.7084 14.1458 19.8756 13.3974 21.1467 12.8714L14.255 5.98145C13.7245 7.24997 12.9756 8.41562 12.0424 9.42544V9.42544Z" fill="#23A6F0"/>
<path d="M16.7538 0.941654L14.8684 2.82699C14.3478 3.34761 14.3478 4.1917 14.8684 4.71232L22.4098 12.2537C22.9304 12.7743 23.7745 12.7743 24.2951 12.2537L26.1804 10.3683C26.7011 9.8477 26.7011 9.00361 26.1804 8.48299L18.6391 0.941654C18.1185 0.421033 17.2744 0.421033 16.7538 0.941654Z" fill="#23A6F0"/>
<path d="M5.43933 12.2532L3.55399 14.1385C3.03337 14.6591 3.03337 15.5032 3.55399 16.0238L11.0953 23.5652C11.6159 24.0858 12.46 24.0858 12.9807 23.5652L14.866 21.6798C15.3866 21.1592 15.3866 20.3151 14.866 19.7945L7.32466 12.2532C6.80404 11.7326 5.95995 11.7326 5.43933 12.2532Z" fill="#23A6F0"/>
</g>
</g>
</g>
<defs>
<clipPath id="clip0_2_82">
<rect width="32" height="32" fill="white" transform="translate(0.5 0.281006)"/>
</clipPath>
<clipPath id="clip1_2_82">
<rect width="31.7319" height="32.282" fill="white" transform="translate(0.5 -0.000732422)"/>
</clipPath>
<clipPath id="clip2_2_82">
<rect width="31.7319" height="32.282" fill="white" transform="translate(0.5 -0.000732422)"/>
</clipPath>
</defs>
</svg>
