<svg width="25" height="25" viewBox="0 0 25 25" fill="none" xmlns="http://www.w3.org/2000/svg">
<path d="M13 1.28076C10.0149 1.28076 9.6395 1.29451 8.46663 1.34676C7.29375 1.40176 6.49488 1.58601 5.795 1.85826C5.06088 2.13439 4.39593 2.56752 3.84663 3.12739C3.2871 3.67697 2.85402 4.34184 2.5775 5.07576C2.30525 5.77426 2.11963 6.57451 2.066 7.74326C2.01375 8.91889 2 9.29289 2 12.2821C2 15.2686 2.01375 15.6426 2.066 16.8155C2.121 17.987 2.30525 18.7859 2.5775 19.4858C2.85937 20.209 3.23475 20.8223 3.84663 21.4341C4.45713 22.046 5.07038 22.4228 5.79363 22.7033C6.49488 22.9755 7.29238 23.1611 8.46388 23.2148C9.63813 23.267 10.0121 23.2808 13 23.2808C15.9879 23.2808 16.3605 23.267 17.5347 23.2148C18.7049 23.1598 19.5065 22.9755 20.2064 22.7033C20.94 22.427 21.6045 21.9939 22.1534 21.4341C22.7652 20.8223 23.1406 20.209 23.4225 19.4858C23.6934 18.7859 23.879 17.987 23.934 16.8155C23.9863 15.6426 24 15.2686 24 12.2808C24 9.29289 23.9863 8.91889 23.934 7.74464C23.879 6.57451 23.6934 5.77426 23.4225 5.07576C23.146 4.34182 22.7129 3.67694 22.1534 3.12739C21.6042 2.56732 20.9392 2.13415 20.205 1.85826C19.5037 1.58601 18.7035 1.40039 17.5334 1.34676C16.3591 1.29451 15.9865 1.28076 12.9973 1.28076H13.0014H13ZM12.0141 3.26351H13.0014C15.9384 3.26351 16.2862 3.27314 17.4454 3.32676C18.5179 3.37489 19.1009 3.55501 19.4886 3.70489C20.0015 3.90426 20.3686 4.14351 20.7536 4.52851C21.1386 4.91351 21.3765 5.27926 21.5759 5.79351C21.7271 6.17989 21.9059 6.76289 21.954 7.83539C22.0076 8.99451 22.0186 9.34239 22.0186 12.278C22.0186 15.2136 22.0076 15.5629 21.954 16.722C21.9059 17.7945 21.7258 18.3761 21.5759 18.7639C21.3995 19.2415 21.118 19.6734 20.7522 20.0275C20.3672 20.4125 20.0015 20.6504 19.4873 20.8498C19.1023 21.001 18.5192 21.1798 17.4454 21.2293C16.2862 21.2815 15.9384 21.2939 13.0014 21.2939C10.0644 21.2939 9.71513 21.2815 8.556 21.2293C7.4835 21.1798 6.90187 21.001 6.51412 20.8498C6.03631 20.6737 5.60405 20.3927 5.24913 20.0275C4.88303 19.6728 4.60112 19.2405 4.42412 18.7625C4.27425 18.3761 4.09413 17.7931 4.046 16.7206C3.99375 15.5615 3.98275 15.2136 3.98275 12.2753C3.98275 9.33826 3.99375 8.99176 4.046 7.83264C4.0955 6.76014 4.27425 6.17714 4.4255 5.78939C4.62488 5.27651 4.86413 4.90939 5.24913 4.52439C5.63412 4.13939 5.99987 3.90151 6.51412 3.70214C6.90187 3.55089 7.4835 3.37214 8.556 3.32264C9.57075 3.27589 9.964 3.26214 12.0141 3.26076V3.26351V3.26351ZM18.8726 5.08951C18.6993 5.08951 18.5276 5.12365 18.3675 5.18999C18.2073 5.25633 18.0618 5.35356 17.9392 5.47613C17.8167 5.5987 17.7194 5.74422 17.6531 5.90437C17.5868 6.06452 17.5526 6.23617 17.5526 6.40951C17.5526 6.58286 17.5868 6.7545 17.6531 6.91465C17.7194 7.0748 17.8167 7.22032 17.9392 7.34289C18.0618 7.46547 18.2073 7.5627 18.3675 7.62903C18.5276 7.69537 18.6993 7.72951 18.8726 7.72951C19.2227 7.72951 19.5585 7.59044 19.806 7.34289C20.0536 7.09534 20.1926 6.7596 20.1926 6.40951C20.1926 6.05943 20.0536 5.72368 19.806 5.47613C19.5585 5.22858 19.2227 5.08951 18.8726 5.08951V5.08951ZM13.0014 6.63226C12.2521 6.62057 11.508 6.75805 10.8123 7.03671C10.1167 7.31536 9.48346 7.72961 8.94946 8.25534C8.41546 8.78108 7.99138 9.40779 7.70191 10.099C7.41244 10.7902 7.26336 11.5321 7.26336 12.2814C7.26336 13.0308 7.41244 13.7727 7.70191 14.4639C7.99138 15.1551 8.41546 15.7818 8.94946 16.3076C9.48346 16.8333 10.1167 17.2475 10.8123 17.5262C11.508 17.8048 12.2521 17.9423 13.0014 17.9306C14.4844 17.9075 15.8988 17.3021 16.9393 16.2452C17.9799 15.1883 18.5631 13.7646 18.5631 12.2814C18.5631 10.7983 17.9799 9.37458 16.9393 8.31767C15.8988 7.26076 14.4844 6.6554 13.0014 6.63226V6.63226ZM13.0014 8.61364C13.974 8.61364 14.9067 8.99999 15.5944 9.68771C16.2821 10.3754 16.6685 11.3082 16.6685 12.2808C16.6685 13.2533 16.2821 14.1861 15.5944 14.8738C14.9067 15.5615 13.974 15.9479 13.0014 15.9479C12.0288 15.9479 11.096 15.5615 10.4083 14.8738C9.72061 14.1861 9.33425 13.2533 9.33425 12.2808C9.33425 11.3082 9.72061 10.3754 10.4083 9.68771C11.096 8.99999 12.0288 8.61364 13.0014 8.61364V8.61364Z" fill="#23A6F0"/>
</svg>
