<svg width="33" height="33" viewBox="0 0 33 33" fill="none" xmlns="http://www.w3.org/2000/svg">
<g clip-path="url(#clip0_2_106)">
<path d="M11.5796 6.44568H5.98438C5.46655 6.44568 5.04688 6.86536 5.04688 7.38318C5.04688 7.901 5.46655 8.32068 5.98438 8.32068H11.5796C12.0972 8.32068 12.5171 7.901 12.5171 7.38318C12.5171 6.86536 12.0972 6.44568 11.5796 6.44568Z" fill="#23A6F0"/>
<path d="M11.5796 10.1962H5.98438C5.46655 10.1962 5.04688 10.6158 5.04688 11.1337C5.04688 11.6515 5.46655 12.0712 5.98438 12.0712H11.5796C12.0972 12.0712 12.5171 11.6515 12.5171 11.1337C12.5171 10.6158 12.0972 10.1962 11.5796 10.1962Z" fill="#23A6F0"/>
<path d="M11.5796 13.9468H5.98438C5.46655 13.9468 5.04688 14.3665 5.04688 14.8843C5.04688 15.4021 5.46655 15.8218 5.98438 15.8218H11.5796C12.0972 15.8218 12.5171 15.4021 12.5171 14.8843C12.5171 14.3665 12.0972 13.9468 11.5796 13.9468Z" fill="#23A6F0"/>
<path d="M11.5796 17.6962H5.98438C5.46655 17.6962 5.04688 18.1158 5.04688 18.6337C5.04688 19.1515 5.46655 19.5712 5.98438 19.5712H11.5796C12.0972 19.5712 12.5171 19.1515 12.5171 18.6337C12.5171 18.1158 12.0972 17.6962 11.5796 17.6962Z" fill="#23A6F0"/>
<path d="M11.5796 21.5098H5.98438C5.46655 21.5098 5.04688 21.9297 5.04688 22.4473C5.04688 22.9651 5.46655 23.3848 5.98438 23.3848H11.5796C12.0972 23.3848 12.5171 22.9651 12.5171 22.4473C12.5171 21.9297 12.0972 21.5098 11.5796 21.5098Z" fill="#23A6F0"/>
<path d="M14.7285 8.32068H20.3237C20.8416 8.32068 21.2612 7.901 21.2612 7.38318C21.2612 6.86536 20.8416 6.44568 20.3237 6.44568H14.7285C14.2109 6.44568 13.791 6.86536 13.791 7.38318C13.791 7.901 14.2109 8.32068 14.7285 8.32068Z" fill="#23A6F0"/>
<path d="M14.7285 12.0712H20.3237C20.8416 12.0712 21.2612 11.6515 21.2612 11.1337C21.2612 10.6158 20.8416 10.1962 20.3237 10.1962H14.7285C14.2109 10.1962 13.791 10.6158 13.791 11.1337C13.791 11.6515 14.2109 12.0712 14.7285 12.0712Z" fill="#23A6F0"/>
<path d="M18.3608 14.8843C18.3608 14.3665 17.9412 13.9468 17.4233 13.9468H14.7285C14.2109 13.9468 13.791 14.3665 13.791 14.8843C13.791 15.4021 14.2109 15.8218 14.7285 15.8218H17.4233C17.9412 15.8218 18.3608 15.4021 18.3608 14.8843Z" fill="#23A6F0"/>
<path d="M27.2423 21.9048C26.8384 21.5808 26.2486 21.6455 25.9244 22.0493L23.5098 25.0595L22.015 23.9765C21.5958 23.6726 21.0094 23.7663 20.7056 24.1855C20.4019 24.605 20.4957 25.1911 20.9149 25.4948L23.1324 27.1015C23.2984 27.2217 23.4908 27.28 23.682 27.28C23.9571 27.28 24.2291 27.1592 24.4136 26.9289L27.387 23.2226C27.711 22.8188 27.6463 22.2287 27.2423 21.9048Z" fill="#23A6F0"/>
<path d="M29.6116 19.0273C28.3904 17.7847 26.8213 17.0015 25.1211 16.7708V4.05664C25.1211 1.97485 23.4272 0.281006 21.3455 0.281006H4.96338C2.88135 0.281006 1.1875 1.97485 1.1875 4.05664V25.7737C1.1875 27.8557 2.88135 29.5496 4.96313 29.5496H18.1392C19.6218 31.2913 21.7537 32.281 24.0601 32.281C28.3533 32.281 31.8459 28.7859 31.8459 24.4897C31.8459 22.4331 31.0525 20.4932 29.6116 19.0273V19.0273ZM3.0625 25.7737V4.05664C3.0625 3.00879 3.91528 2.15601 4.96338 2.15601H21.3455C22.3936 2.15601 23.2461 3.00879 23.2461 4.05664V16.741C19.334 17.1494 16.2742 20.4685 16.2742 24.4897C16.2742 25.6042 16.5066 26.6819 16.9524 27.6743H4.96338C3.91528 27.6743 3.0625 26.8218 3.0625 25.7737ZM24.0601 30.406C22.1877 30.406 20.4666 29.5464 19.3374 28.0479C18.5601 27.0159 18.1489 25.7856 18.1489 24.4897C18.1489 21.2275 20.8008 18.5735 24.0601 18.5735C24.0908 18.5735 24.1218 18.574 24.1526 18.5745L24.167 18.5747C25.7229 18.6023 27.1816 19.2297 28.2744 20.3416C29.3684 21.4546 29.9709 22.928 29.9709 24.4897C29.9709 27.752 27.3193 30.406 24.0601 30.406V30.406Z" fill="#23A6F0"/>
</g>
<defs>
<clipPath id="clip0_2_106">
<rect width="32" height="32" fill="white" transform="translate(0.5 0.281006)"/>
</clipPath>
</defs>
</svg>
