<svg width="25" height="21" viewBox="0 0 25 21" fill="none" xmlns="http://www.w3.org/2000/svg">
<path fill-rule="evenodd" clip-rule="evenodd" d="M-0.41875 2.99743C-0.25492 2.26117 0.147815 1.60378 0.723498 1.13294C1.29918 0.662101 2.01369 0.405711 2.75 0.405762H22.25C22.9863 0.405711 23.7008 0.662101 24.2765 1.13294C24.8522 1.60378 25.2549 2.26117 25.4187 2.99743L12.5 11.0958L-0.41875 2.99743ZM-0.5 4.90076V16.7408L8.92988 10.8108L-0.5 4.90076ZM10.4866 11.7891L-0.189625 18.5008C0.0741557 19.0712 0.490481 19.5531 1.0109 19.8904C1.53131 20.2276 2.13441 20.4064 2.75 20.4058H22.25C22.8655 20.4059 23.4684 20.2268 23.9885 19.8892C24.5086 19.5517 24.9246 19.0696 25.188 18.4991L14.5118 11.7874L12.5 13.0491L10.4866 11.7874V11.7891ZM16.0701 10.8124L25.5 16.7408V4.90076L16.0701 10.8108V10.8124Z" fill="#23A6F0"/>
</svg>
