<svg width="24" height="31" viewBox="0 0 24 31" fill="none" xmlns="http://www.w3.org/2000/svg">
<g clip-path="url(#clip0_2_491)">
<path d="M12 18.2806C15.3089 18.2806 17.9999 15.5896 17.9999 12.2806C17.9999 8.97169 15.3089 6.28072 12 6.28072C8.69101 6.28072 6.00004 8.97169 6.00004 12.2806C6.00004 15.5896 8.69101 18.2806 12 18.2806ZM12 9.28068C13.6545 9.28068 14.9999 10.6262 14.9999 12.2806C14.9999 13.9351 13.6545 15.2806 12 15.2806C10.3455 15.2806 9.00001 13.9351 9.00001 12.2806C9.00001 10.6262 10.3455 9.28068 12 9.28068ZM11.13 30.0014C11.3839 30.1827 11.688 30.2802 12 30.2802C12.312 30.2802 12.6161 30.1827 12.87 30.0014C13.326 29.6789 24.0434 21.9405 23.9999 12.2806C23.9999 5.6642 18.6164 0.280762 12 0.280762C5.38357 0.280762 0.000132055 5.6642 0.000132055 12.2731C-0.0433675 21.9405 10.674 29.6789 11.13 30.0014ZM12 3.28073C16.9634 3.28073 20.9999 7.31719 20.9999 12.2881C21.0314 18.9451 14.418 24.9225 12 26.883C9.58353 24.921 2.9686 18.9421 3.0001 12.2806C3.0001 7.31719 7.03655 3.28073 12 3.28073ZM12 18.2806C15.3089 18.2806 17.9999 15.5896 17.9999 12.2806C17.9999 8.97169 15.3089 6.28072 12 6.28072C8.69101 6.28072 6.00004 8.97169 6.00004 12.2806C6.00004 15.5896 8.69101 18.2806 12 18.2806ZM12 9.28068C13.6545 9.28068 14.9999 10.6262 14.9999 12.2806C14.9999 13.9351 13.6545 15.2806 12 15.2806C10.3455 15.2806 9.00001 13.9351 9.00001 12.2806C9.00001 10.6262 10.3455 9.28068 12 9.28068ZM11.13 30.0014C11.3839 30.1827 11.688 30.2802 12 30.2802C12.312 30.2802 12.6161 30.1827 12.87 30.0014C13.326 29.6789 24.0434 21.9405 23.9999 12.2806C23.9999 5.6642 18.6164 0.280762 12 0.280762C5.38357 0.280762 0.000132055 5.6642 0.000132055 12.2731C-0.0433675 21.9405 10.674 29.6789 11.13 30.0014ZM12 3.28073C16.9634 3.28073 20.9999 7.31719 20.9999 12.2881C21.0314 18.9451 14.418 24.9225 12 26.883C9.58353 24.921 2.9686 18.9421 3.0001 12.2806C3.0001 7.31719 7.03655 3.28073 12 3.28073ZM12 18.2806C15.3089 18.2806 17.9999 15.5896 17.9999 12.2806C17.9999 8.97169 15.3089 6.28072 12 6.28072C8.69101 6.28072 6.00004 8.97169 6.00004 12.2806C6.00004 15.5896 8.69101 18.2806 12 18.2806ZM12 9.28068C13.6545 9.28068 14.9999 10.6262 14.9999 12.2806C14.9999 13.9351 13.6545 15.2806 12 15.2806C10.3455 15.2806 9.00001 13.9351 9.00001 12.2806C9.00001 10.6262 10.3455 9.28068 12 9.28068ZM11.13 30.0014C11.3839 30.1827 11.688 30.2802 12 30.2802C12.312 30.2802 12.6161 30.1827 12.87 30.0014C13.326 29.6789 24.0434 21.9405 23.9999 12.2806C23.9999 5.6642 18.6164 0.280762 12 0.280762C5.38357 0.280762 0.000132055 5.6642 0.000132055 12.2731C-0.0433675 21.9405 10.674 29.6789 11.13 30.0014ZM12 3.28073C16.9634 3.28073 20.9999 7.31719 20.9999 12.2881C21.0314 18.9451 14.418 24.9225 12 26.883C9.58353 24.921 2.9686 18.9421 3.0001 12.2806C3.0001 7.31719 7.03655 3.28073 12 3.28073ZM12 18.2806C15.3089 18.2806 17.9999 15.5896 17.9999 12.2806C17.9999 8.97169 15.3089 6.28072 12 6.28072C8.69101 6.28072 6.00004 8.97169 6.00004 12.2806C6.00004 15.5896 8.69101 18.2806 12 18.2806ZM12 9.28068C13.6545 9.28068 14.9999 10.6262 14.9999 12.2806C14.9999 13.9351 13.6545 15.2806 12 15.2806C10.3455 15.2806 9.00001 13.9351 9.00001 12.2806C9.00001 10.6262 10.3455 9.28068 12 9.28068ZM11.13 30.0014C11.3839 30.1827 11.688 30.2802 12 30.2802C12.312 30.2802 12.6161 30.1827 12.87 30.0014C13.326 29.6789 24.0434 21.9405 23.9999 12.2806C23.9999 5.6642 18.6164 0.280762 12 0.280762C5.38357 0.280762 0.000132055 5.6642 0.000132055 12.2731C-0.0433675 21.9405 10.674 29.6789 11.13 30.0014ZM12 3.28073C16.9634 3.28073 20.9999 7.31719 20.9999 12.2881C21.0314 18.9451 14.418 24.9225 12 26.883C9.58353 24.921 2.9686 18.9421 3.0001 12.2806C3.0001 7.31719 7.03655 3.28073 12 3.28073Z" fill="#23A6F0"/>
<path d="M12 18.2806C15.3089 18.2806 17.9999 15.5896 17.9999 12.2806C17.9999 8.97169 15.3089 6.28072 12 6.28072C8.69101 6.28072 6.00004 8.97169 6.00004 12.2806C6.00004 15.5896 8.69101 18.2806 12 18.2806ZM12 9.28068C13.6545 9.28068 14.9999 10.6262 14.9999 12.2806C14.9999 13.9351 13.6545 15.2806 12 15.2806C10.3455 15.2806 9.00001 13.9351 9.00001 12.2806C9.00001 10.6262 10.3455 9.28068 12 9.28068ZM11.13 30.0014C11.3839 30.1827 11.688 30.2802 12 30.2802C12.312 30.2802 12.6161 30.1827 12.87 30.0014C13.326 29.6789 24.0434 21.9405 23.9999 12.2806C23.9999 5.6642 18.6164 0.280762 12 0.280762C5.38357 0.280762 0.000132055 5.6642 0.000132055 12.2731C-0.0433675 21.9405 10.674 29.6789 11.13 30.0014ZM12 3.28073C16.9634 3.28073 20.9999 7.31719 20.9999 12.2881C21.0314 18.9451 14.418 24.9225 12 26.883C9.58353 24.921 2.9686 18.9421 3.0001 12.2806C3.0001 7.31719 7.03655 3.28073 12 3.28073ZM12 18.2806C15.3089 18.2806 17.9999 15.5896 17.9999 12.2806C17.9999 8.97169 15.3089 6.28072 12 6.28072C8.69101 6.28072 6.00004 8.97169 6.00004 12.2806C6.00004 15.5896 8.69101 18.2806 12 18.2806ZM12 9.28068C13.6545 9.28068 14.9999 10.6262 14.9999 12.2806C14.9999 13.9351 13.6545 15.2806 12 15.2806C10.3455 15.2806 9.00001 13.9351 9.00001 12.2806C9.00001 10.6262 10.3455 9.28068 12 9.28068ZM11.13 30.0014C11.3839 30.1827 11.688 30.2802 12 30.2802C12.312 30.2802 12.6161 30.1827 12.87 30.0014C13.326 29.6789 24.0434 21.9405 23.9999 12.2806C23.9999 5.6642 18.6164 0.280762 12 0.280762C5.38357 0.280762 0.000132055 5.6642 0.000132055 12.2731C-0.0433675 21.9405 10.674 29.6789 11.13 30.0014ZM12 3.28073C16.9634 3.28073 20.9999 7.31719 20.9999 12.2881C21.0314 18.9451 14.418 24.9225 12 26.883C9.58353 24.921 2.9686 18.9421 3.0001 12.2806C3.0001 7.31719 7.03655 3.28073 12 3.28073ZM12 18.2806C15.3089 18.2806 17.9999 15.5896 17.9999 12.2806C17.9999 8.97169 15.3089 6.28072 12 6.28072C8.69101 6.28072 6.00004 8.97169 6.00004 12.2806C6.00004 15.5896 8.69101 18.2806 12 18.2806ZM12 9.28068C13.6545 9.28068 14.9999 10.6262 14.9999 12.2806C14.9999 13.9351 13.6545 15.2806 12 15.2806C10.3455 15.2806 9.00001 13.9351 9.00001 12.2806C9.00001 10.6262 10.3455 9.28068 12 9.28068ZM11.13 30.0014C11.3839 30.1827 11.688 30.2802 12 30.2802C12.312 30.2802 12.6161 30.1827 12.87 30.0014C13.326 29.6789 24.0434 21.9405 23.9999 12.2806C23.9999 5.6642 18.6164 0.280762 12 0.280762C5.38357 0.280762 0.000132055 5.6642 0.000132055 12.2731C-0.0433675 21.9405 10.674 29.6789 11.13 30.0014ZM12 3.28073C16.9634 3.28073 20.9999 7.31719 20.9999 12.2881C21.0314 18.9451 14.418 24.9225 12 26.883C9.58353 24.921 2.9686 18.9421 3.0001 12.2806C3.0001 7.31719 7.03655 3.28073 12 3.28073ZM12 18.2806C15.3089 18.2806 17.9999 15.5896 17.9999 12.2806C17.9999 8.97169 15.3089 6.28072 12 6.28072C8.69101 6.28072 6.00004 8.97169 6.00004 12.2806C6.00004 15.5896 8.69101 18.2806 12 18.2806ZM12 9.28068C13.6545 9.28068 14.9999 10.6262 14.9999 12.2806C14.9999 13.9351 13.6545 15.2806 12 15.2806C10.3455 15.2806 9.00001 13.9351 9.00001 12.2806C9.00001 10.6262 10.3455 9.28068 12 9.28068ZM11.13 30.0014C11.3839 30.1827 11.688 30.2802 12 30.2802C12.312 30.2802 12.6161 30.1827 12.87 30.0014C13.326 29.6789 24.0434 21.9405 23.9999 12.2806C23.9999 5.6642 18.6164 0.280762 12 0.280762C5.38357 0.280762 0.000132055 5.6642 0.000132055 12.2731C-0.0433675 21.9405 10.674 29.6789 11.13 30.0014ZM12 3.28073C16.9634 3.28073 20.9999 7.31719 20.9999 12.2881C21.0314 18.9451 14.418 24.9225 12 26.883C9.58353 24.921 2.9686 18.9421 3.0001 12.2806C3.0001 7.31719 7.03655 3.28073 12 3.28073Z" fill="#23A6F0"/>
</g>
<defs>
<clipPath id="clip0_2_491">
<rect width="24" height="29.9997" fill="white" transform="translate(0 0.280762)"/>
</clipPath>
</defs>
</svg>
