<svg width="24" height="25" viewBox="0 0 24 25" fill="none" xmlns="http://www.w3.org/2000/svg">
<g clip-path="url(#clip0_2_487)">
<path d="M18.8478 12.6325C18.7365 12.5209 18.6043 12.4325 18.4587 12.3721C18.3131 12.3117 18.157 12.2806 17.9995 12.2806C17.8419 12.2806 17.6858 12.3117 17.5402 12.3721C17.3946 12.4325 17.2624 12.5209 17.1511 12.6325L15.2383 14.5453C14.3515 14.2813 12.6967 13.6813 11.6479 12.6325C10.5991 11.5837 9.99913 9.92891 9.73513 9.04211L11.6479 7.12933C11.7594 7.01799 11.8479 6.88575 11.9083 6.74017C11.9687 6.59459 11.9998 6.43854 11.9998 6.28094C11.9998 6.12334 11.9687 5.96729 11.9083 5.82172C11.8479 5.67614 11.7594 5.5439 11.6479 5.43255L6.84796 0.632599C6.73662 0.521066 6.60438 0.432581 6.4588 0.372209C6.31322 0.311837 6.15717 0.280762 5.99957 0.280762C5.84197 0.280762 5.68592 0.311837 5.54034 0.372209C5.39477 0.432581 5.26252 0.521066 5.15118 0.632599L1.89681 3.88697C1.44082 4.34296 1.18402 4.96936 1.19362 5.60895C1.22122 7.31773 1.67361 13.2529 6.35117 17.9304C11.0287 22.608 16.9639 23.0592 18.6738 23.088H18.7074C19.341 23.088 19.9398 22.8384 20.3934 22.3848L23.6478 19.1304C23.7593 19.0191 23.8478 18.8868 23.9082 18.7412C23.9686 18.5957 23.9996 18.4396 23.9996 18.282C23.9996 18.1244 23.9686 17.9684 23.9082 17.8228C23.8478 17.6772 23.7593 17.545 23.6478 17.4336L18.8478 12.6325ZM18.6954 20.6868C17.1979 20.6616 12.0739 20.2596 8.04795 16.2324C4.00879 12.1933 3.6176 7.05133 3.5936 5.58375L5.99957 3.17777L9.10274 6.28094L7.55116 7.83253C7.41011 7.97347 7.30641 8.14733 7.24942 8.3384C7.19243 8.52948 7.18396 8.73174 7.22476 8.92692C7.25356 9.06491 7.95795 12.3373 9.94993 14.3293C11.9419 16.3212 15.2143 17.0256 15.3523 17.0544C15.5473 17.0964 15.7498 17.0886 15.941 17.0318C16.1323 16.9749 16.3062 16.8709 16.4467 16.7292L17.9995 15.1777L21.1026 18.2808L18.6954 20.6868V20.6868Z" fill="#23A6F0"/>
</g>
<defs>
<clipPath id="clip0_2_487">
<rect width="24" height="24" fill="white" transform="translate(0 0.280762)"/>
</clipPath>
</defs>
</svg>
