<svg width="25" height="21" viewBox="0 0 25 21" fill="none" xmlns="http://www.w3.org/2000/svg">
<path d="M8.91075 19.2808C17.213 19.2808 21.7546 12.3539 21.7546 6.35745C21.7546 6.16361 21.7546 5.96701 21.7464 5.77317C22.6306 5.12865 23.3937 4.33069 24 3.41668C23.1741 3.78338 22.2988 4.02506 21.4026 4.13388C22.3466 3.56571 23.0536 2.67176 23.3923 1.61816C22.5054 2.14723 21.5346 2.51863 20.5226 2.71611C19.8423 1.98649 18.9419 1.50313 17.9611 1.34092C16.9803 1.17871 15.9737 1.34669 15.0973 1.81884C14.2209 2.29099 13.5236 3.04096 13.1134 3.95259C12.7031 4.86421 12.6029 5.88661 12.8281 6.86142C11.0334 6.77081 9.27762 6.30133 7.67468 5.48345C6.07175 4.66557 4.65744 3.51754 3.5235 2.11383C2.94784 3.11497 2.77216 4.29919 3.03214 5.42602C3.29211 6.55285 3.96825 7.53781 4.92325 8.18089C4.20762 8.15641 3.50772 7.96291 2.88 7.616V7.6783C2.88123 8.72707 3.24205 9.74324 3.90145 10.555C4.56086 11.3669 5.4784 11.9245 6.499 12.1338C6.11161 12.2412 5.71144 12.2948 5.30963 12.293C5.02635 12.2938 4.74365 12.2674 4.46537 12.2141C4.75383 13.1169 5.3155 13.9062 6.07171 14.4715C6.82793 15.0368 7.74081 15.3498 8.6825 15.3667C7.08276 16.6319 5.10668 17.318 3.0725 17.3147C2.71407 17.3162 2.35588 17.2954 2 17.2524C4.06458 18.5778 6.46228 19.2815 8.91075 19.2808V19.2808Z" fill="#23A6F0"/>
</svg>
